<?xml version="1.0" standalone="no"?>
<!DOCTYPE svg PUBLIC "-//W3C//DTD SVG 20010904//EN"
 "http://www.w3.org/TR/2001/REC-SVG-20010904/DTD/svg10.dtd">
<svg version="1.0" xmlns="http://www.w3.org/2000/svg"
 width="958.000000pt" height="999.000000pt" viewBox="0 0 958.000000 999.000000"
 preserveAspectRatio="xMidYMid meet">
<metadata>
Created by potrace 1.16, written by Peter Selinger 2001-2019
</metadata>
<g transform="translate(0.000000,999.000000) scale(0.100000,-0.100000)"
fill="#000000" stroke="none">
<path d="M325 9972 c-162 -68 -281 -211 -315 -377 -37 -178 51 -1302 155
-2000 375 -2499 1277 -4603 2669 -6225 360 -420 914 -954 1156 -1115 193 -129
459 -223 669 -237 20 -2 -1021 -5 -2314 -8 -1552 -3 -722 -5 2445 -5 3167 0
3997 2 2445 5 -1292 3 -2334 6 -2314 8 75 5 213 33 307 63 220 71 374 164 602
364 837 735 1546 1626 2129 2675 117 210 336 652 439 887 651 1472 1046 3158
1156 4923 25 398 30 598 16 665 -31 152 -133 285 -272 355 l-80 40 -143 0
-143 0 -174 -64 c-1028 -378 -2109 -607 -3188 -676 -225 -15 -1321 -15 -1550
-1 -1084 69 -2165 298 -3198 677 l-174 64 -141 -1 c-110 0 -151 -4 -182 -17z
m3295 -2353 c163 -26 286 -145 321 -310 26 -118 -17 -253 -108 -340 -26 -26
-313 -228 -638 -449 -324 -222 -645 -441 -713 -487 -173 -119 -216 -137 -322
-137 -122 1 -186 28 -271 113 -75 75 -95 119 -130 278 -30 141 -37 396 -14
518 33 177 102 312 224 438 103 108 232 190 401 257 128 51 372 101 600 123
86 9 591 6 650 -4z m3155 -14 c61 -9 156 -27 213 -41 489 -115 774 -370 847
-759 34 -180 7 -503 -57 -673 -30 -80 -130 -180 -213 -212 -88 -35 -209 -34
-287 2 -76 35 -1470 988 -1531 1047 -221 213 -101 597 204 650 90 16 696 6
824 -14z m-1695 -3916 c249 -24 545 -104 762 -207 371 -174 698 -461 928 -812
63 -96 145 -249 137 -256 -2 -2 -52 18 -111 46 -620 290 -1360 460 -2006 460
-646 0 -1387 -170 -2006 -460 -59 -28 -109 -48 -111 -46 -8 7 74 160 137 256
407 621 1060 990 1819 1029 153 8 295 5 451 -10z"/>
</g>
</svg>
